<svg xmlns="http://www.w3.org/2000/svg" version="1.1" viewBox="-5.0 -10.0 110.0 135.0">
 <path d="m88.676 27.098h-3.918v-4.7969c0.0625-0.39844-0.0625-0.78906-0.3125-1.0742-0.23437-0.27734-0.57812-0.45703-0.96875-0.47266-4.2188-0.76172-10.738-0.22656-17.48 1.4609-6.5117 1.6289-12.168 4.0195-15.883 6.6094-0.75-0.65625-1.5859-1.4648-2.5586-2.4336-3.4414-3.4219-8.1602-8.1094-13.523-9.4531-0.38672-0.097656-0.8125-0.011719-1.1406 0.24219-0.32031 0.25-0.50781 0.63672-0.50781 1.0469v3.6875c-6.2148-1.4102-12.141-1.8516-16.059-1.1016-0.625 0.12109-1.0781 0.66406-1.0781 1.3008v4.9844h-3.9258c-0.72656 0-1.3203 0.59375-1.3203 1.3281v48.844c0 0.73047 0.59375 1.3242 1.3242 1.3242h29.977c0.74609 0.62891 1.4727 1.2695 2.1484 1.9102 1.7617 1.6719 4.0234 2.5938 6.3672 2.5938h0.39844c2.3438 0 4.5664-0.89062 6.2578-2.5 0.70703-0.67188 1.457-1.3438 2.2188-2.0039h29.98c0.73438 0 1.3281-0.59375 1.3281-1.3242v-48.844c0-0.73438-0.59375-1.3281-1.3242-1.3281zm-37.32 4.0234c3.4062-2.4297 9.0508-4.7734 15.285-6.332 5.918-1.4844 11.578-2.0508 15.465-1.5625v41.477c-4.1953-0.44922-10.059 0.14062-16.105 1.6562-5.7812 1.4453-10.957 3.4844-14.641 5.7305zm-16.316-11.062c4.043 1.6445 7.8086 5.3906 10.648 8.2148 1.1172 1.1094 2.0781 2.0391 2.9609 2.7852v40.543c-0.35938-0.35156-0.70313-0.68359-1.0977-1.0742-3.2266-3.2031-7.5703-7.5156-12.512-9.1523zm-17.137 3.1914c3.6602-0.44531 9.0312 0.078125 14.484 1.3672v37.75c0 0.60547 0.41406 1.1406 1.0039 1.2852 3.1133 0.77734 6.1094 3.0039 8.7227 5.3477-2.5117-0.98828-5.2227-1.9023-8.1016-2.6328-6.1289-1.5078-12.008-2.0742-16.113-1.6367zm69.445 52.695h-29.156c-0.17578 0-0.29688 0.125-0.44922 0.1875-0.13672 0.050782-0.28906 0.03125-0.40625 0.12891-0.027344 0.023437-0.054688 0.050781-0.082032 0.074219h-0.003906c-0.90234 0.76562-1.7773 1.5547-2.6055 2.3438-1.1953 1.1406-2.7695 1.7695-4.4336 1.7695h-0.39844c-1.6602 0-3.2773-0.66406-4.5469-1.8672-0.82422-0.78125-1.6992-1.5742-2.6211-2.3359-0.12891-0.10547-0.29297-0.085938-0.44141-0.13281-0.14062-0.050781-0.24609-0.16797-0.40234-0.16797h-29.148v-46.195h2.5977v36.527c0 0.39844 0.17969 0.77734 0.48828 1.0234 0.3125 0.25781 0.72656 0.35156 1.1094 0.27344 3.7422-0.76953 9.9258-0.25781 16.527 1.3633 6.3555 1.6172 12.098 4.0078 15.488 6.4453 0.10547 0.085938 0.23047 0.21094 0.33203 0.28906l0.042969-0.058594c0.007813 0.003907 0.019531 0.003907 0.027344 0.011719 0.066406 0.046875 0.10156 0.125 0.17969 0.16016 0.14844 0.070313 0.30859 0.09375 0.46875 0.10938 0.023438 0 0.039063 0.027344 0.0625 0.027344h0.050782c0.28516 0 0.57422-0.09375 0.80859-0.27344 3.3281-2.5625 9.2422-5.0742 15.805-6.7188 6.5078-1.625 12.695-2.1367 16.551-1.3867 0.55859 0.097656 1.2266-0.21094 1.4688-0.79688 0.082032-0.20703 0.11328-0.42578 0.09375-0.63281v-36.363h2.5938zm-33.805-35.809c-0.44531-0.57812-0.33594-1.4141 0.24219-1.8594 2.5195-1.9297 6.7109-3.7227 11.5-4.9219 4.6836-1.1719 9.2305-1.5312 12.145-0.97266 0.71484 0.14063 1.1875 0.83594 1.0469 1.5547-0.14062 0.71875-0.82422 1.1758-1.5547 1.0508-2.5039-0.49219-6.7266-0.12891-10.996 0.94141-4.3789 1.0938-8.3164 2.7617-10.527 4.457-0.24219 0.18359-0.52734 0.27344-0.80859 0.27344-0.39453-0.003906-0.78906-0.17969-1.0469-0.52344zm0 11.098c-0.44531-0.57812-0.33594-1.4141 0.24219-1.8594 2.5273-1.9297 6.7148-3.7227 11.5-4.918 4.6836-1.1719 9.2305-1.5312 12.145-0.97266 0.71484 0.14062 1.1875 0.83594 1.0469 1.5547-0.14062 0.71875-0.82422 1.168-1.5547 1.0508-2.5039-0.49609-6.7266-0.13281-10.996 0.94141-4.3789 1.0938-8.3164 2.7578-10.527 4.4531-0.24219 0.18359-0.52734 0.27344-0.80859 0.27344-0.39453-0.003906-0.78906-0.18359-1.0469-0.52344zm12.383 6.6992c-4.3789 1.0977-8.3164 2.7578-10.527 4.4531-0.24219 0.1875-0.52734 0.27344-0.80859 0.27344-0.39844 0-0.79297-0.17969-1.0508-0.51953-0.44531-0.58594-0.33594-1.4141 0.24219-1.8594 2.5273-1.9297 6.7148-3.7266 11.5-4.918 4.6953-1.1758 9.2422-1.5312 12.145-0.97656 0.71484 0.14062 1.1875 0.83594 1.0469 1.5547-0.14062 0.71484-0.82422 1.2227-1.5547 1.0469-2.4961-0.47656-6.7266-0.11719-10.992 0.94531z"/>
<text x="0.0" y="117.5" font-size="5.0" font-weight="bold" font-family="Arbeit Regular, Helvetica, Arial-Unicode, Arial, Sans-serif" fill="#000000">Created by ARIPATUT DASUKI</text><text x="0.0" y="122.5" font-size="5.0" font-weight="bold" font-family="Arbeit Regular, Helvetica, Arial-Unicode, Arial, Sans-serif" fill="#000000">from Noun Project</text></svg>